<mxfile host="Electron" modified="2024-04-04T02:47:26.146Z" agent="Mozilla/5.0 (Windows NT 10.0; Win64; x64) AppleWebKit/537.36 (KHTML, like Gecko) draw.io/24.1.0 Chrome/120.0.6099.109 Electron/28.1.0 Safari/537.36" etag="gPr_RrMZz3LshUVzXpar" version="24.1.0" type="device">
  <diagram name="Page-1" id="aea0GfQuKLHmchCYrJyW">
    <mxGraphModel dx="619" dy="543" grid="1" gridSize="10" guides="1" tooltips="1" connect="1" arrows="1" fold="1" page="1" pageScale="1" pageWidth="850" pageHeight="1100" math="0" shadow="0">
      <root>
        <mxCell id="0" />
        <mxCell id="1" parent="0" />
        <mxCell id="8dZi2FqovemDTrJlzaz2-1" value="WebUI" style="rounded=0;whiteSpace=wrap;html=1;fillColor=#dae8fc;strokeColor=#6c8ebf;" vertex="1" parent="1">
          <mxGeometry x="330" y="280" width="240" height="40" as="geometry" />
        </mxCell>
        <mxCell id="8dZi2FqovemDTrJlzaz2-2" value="Infrastructure" style="rounded=0;whiteSpace=wrap;html=1;fillColor=#d5e8d4;strokeColor=#82b366;" vertex="1" parent="1">
          <mxGeometry x="330" y="330" width="240" height="40" as="geometry" />
        </mxCell>
        <mxCell id="8dZi2FqovemDTrJlzaz2-3" value="Application" style="rounded=0;whiteSpace=wrap;html=1;fillColor=#f8cecc;strokeColor=#b85450;" vertex="1" parent="1">
          <mxGeometry x="330" y="380" width="240" height="40" as="geometry" />
        </mxCell>
        <mxCell id="8dZi2FqovemDTrJlzaz2-4" value="Domain" style="rounded=0;whiteSpace=wrap;html=1;fillColor=#fff2cc;strokeColor=#d6b656;" vertex="1" parent="1">
          <mxGeometry x="330" y="430" width="240" height="40" as="geometry" />
        </mxCell>
        <mxCell id="8dZi2FqovemDTrJlzaz2-5" value="" style="shape=flexArrow;endArrow=classic;html=1;rounded=0;width=3.0555555555555554;endSize=4.019444444444445;endWidth=7.762345679012345;" edge="1" parent="1">
          <mxGeometry width="50" height="50" relative="1" as="geometry">
            <mxPoint x="350" y="310" as="sourcePoint" />
            <mxPoint x="350" y="350" as="targetPoint" />
          </mxGeometry>
        </mxCell>
        <mxCell id="8dZi2FqovemDTrJlzaz2-7" value="" style="shape=flexArrow;endArrow=classic;html=1;rounded=0;width=3.0555555555555554;endSize=4.019444444444445;endWidth=7.762345679012345;" edge="1" parent="1">
          <mxGeometry width="50" height="50" relative="1" as="geometry">
            <mxPoint x="350" y="360" as="sourcePoint" />
            <mxPoint x="350" y="400" as="targetPoint" />
          </mxGeometry>
        </mxCell>
        <mxCell id="8dZi2FqovemDTrJlzaz2-8" value="" style="shape=flexArrow;endArrow=classic;html=1;rounded=0;width=3.0555555555555554;endSize=4.019444444444445;endWidth=7.762345679012345;" edge="1" parent="1">
          <mxGeometry width="50" height="50" relative="1" as="geometry">
            <mxPoint x="350" y="410" as="sourcePoint" />
            <mxPoint x="350" y="450" as="targetPoint" />
          </mxGeometry>
        </mxCell>
        <mxCell id="8dZi2FqovemDTrJlzaz2-9" value="" style="shape=flexArrow;endArrow=classic;html=1;rounded=0;width=3.0555555555555554;endSize=4.019444444444445;endWidth=7.762345679012345;" edge="1" parent="1">
          <mxGeometry width="50" height="50" relative="1" as="geometry">
            <mxPoint x="380" y="310" as="sourcePoint" />
            <mxPoint x="380" y="400" as="targetPoint" />
          </mxGeometry>
        </mxCell>
      </root>
    </mxGraphModel>
  </diagram>
</mxfile>
